<?xml version="1.0" standalone="no"?><!DOCTYPE svg PUBLIC "-//W3C//DTD SVG 1.1//EN" "http://www.w3.org/Graphics/SVG/1.1/DTD/svg11.dtd"><svg t="1683784392451" class="icon" viewBox="0 0 1024 1024" version="1.1" xmlns="http://www.w3.org/2000/svg" p-id="8170" width="17" height="17" xmlns:xlink="http://www.w3.org/1999/xlink"><path d="M659.348211 0.215579c47.804632 0 87.309474 36.702316 91.836631 83.375158l0.431158 8.838737-0.053895 30.773894h227.058527a42.900211 42.900211 0 0 1 41.606736 30.181053l1.293474 6.036211 0.538947 6.359579a43.331368 43.331368 0 0 1-37.025684 42.90021l-6.359579 0.538947-104.124631-0.107789v646.736842l-0.323369 9.916632a141.904842 141.904842 0 0 1-131.503158 131.503158l-10.078315 0.323368h-443.014737a141.904842 141.904842 0 0 1-141.581474-132.20379l-0.323368-9.701052V209.92H43.546947a43.331368 43.331368 0 0 1-41.498947-30.827789l-1.455158-6.036211-0.431158-6.467368c0-21.827368 16.006737-39.882105 36.97179-42.846316l6.467368-0.538948h227.759158v-30.72A92.483368 92.483368 0 0 1 346.165895 1.886316l8.623158-1.293474 8.838736-0.431158h295.720422z m128.485052 208.896H234.334316v646.521263c0.053895 28.133053 21.126737 51.361684 48.343579 54.810947l6.952421 0.431158h443.014737c27.863579 0 51.307789-20.749474 54.810947-48.289684l0.431158-7.006316-0.053895-646.467368zM511.137684 331.344842c21.827368 0 39.774316 16.060632 42.846316 36.97179l0.538947 6.467368v394.186105a43.331368 43.331368 0 0 1-86.285473 6.359579l-0.431158-6.359579V374.730105c0-23.929263 19.348211-43.385263 43.331368-43.385263z m-172.678737 0c21.773474 0 39.774316 16.060632 42.900211 36.97179l0.431158 6.467368v394.186105c0 23.983158-19.348211 43.331368-43.331369 43.331369a44.193684 44.193684 0 0 1-42.684631-36.917895l-0.700632-6.467368V374.784c0-23.929263 19.402105-43.385263 43.385263-43.385263z m345.357474 0c21.827368 0 39.774316 16.060632 42.900211 36.97179l0.538947 6.467368v394.186105a43.331368 43.331368 0 0 1-86.393263 6.359579l-0.431158-6.359579V374.730105c0-23.929263 19.402105-43.385263 43.385263-43.385263zM659.348211 86.231579H363.735579a6.144 6.144 0 0 0-5.928421 3.772632l-0.377263 2.533052-0.10779 30.72h308.277895v-30.72a6.144 6.144 0 0 0-3.772632-5.874526l-2.479157-0.431158z" p-id="8171"></path></svg>