<?xml version="1.0" standalone="no"?><!DOCTYPE svg PUBLIC "-//W3C//DTD SVG 1.1//EN" "http://www.w3.org/Graphics/SVG/1.1/DTD/svg11.dtd"><svg t="1686981085546" class="icon" viewBox="0 0 1024 1024" version="1.1" xmlns="http://www.w3.org/2000/svg" p-id="3844" width="46" height="46" xmlns:xlink="http://www.w3.org/1999/xlink"><path d="M511.799652 0c18.454261 0 34.014609 13.734957 36.285218 32.033391l19.700869 157.673739h419.639652c19.990261 0 36.240696 16.050087 36.574609 35.973566v761.744695c0 20.190609-16.384 36.574609-36.574609 36.574609h-545.836521c-1.046261 0-2.092522 0-3.116522-0.089043l-0.289391-0.022261a35.951304 35.951304 0 0 1-28.13774-17.185392 37.687652 37.687652 0 0 1-5.431652-16.65113l-19.700869-155.759304H36.574609c-20.012522 0-36.240696-16.050087-36.574609-35.973566V36.552348C0 16.406261 16.384 0 36.574609 0H511.777391z m439.051131 262.856348H577.558261l14.625391 117.136695h181.537391a36.574609 36.574609 0 0 1 0.601044 73.149218h-172.989217l14.692173 117.715478h156.538435a36.574609 36.574609 0 0 1 0.601044 73.149218h-148.034783l18.565565 148.613565c1.26887 10.128696-1.78087 20.346435-8.392347 28.16l-0.356174 0.445217-113.307826 129.625044h429.211826V262.856348z m-424.470261 571.436522h-67.762087l8.570435 67.717565 59.213913-67.717565zM479.521391 73.149217H73.149217v687.994435l6.811826-0.022261 0.868174-2.871652C133.965913 581.298087 169.22713 492.855652 186.657391 492.855652c17.741913 0 58.590609 42.941217 122.568348 128.823652 47.549217-213.704348 85.615304-320.534261 114.198261-320.534261 28.338087 0 75.197217 153.33287 140.55513 459.998609h1.469218l-18.120348-145.007304a36.641391 36.641391 0 0 1-1.046261-8.281044l-66.782609-534.706087z" p-id="3845"></path></svg>