<?xml version="1.0" encoding="UTF-8"?>
<svg width="26px" height="26px" viewBox="0 0 26 26" version="1.1" xmlns="http://www.w3.org/2000/svg" xmlns:xlink="http://www.w3.org/1999/xlink">
    <title>调整</title>
    <g id="2.6版本" stroke="none" stroke-width="1" fill="none" fill-rule="evenodd">
        <g id="2.6版本-资源库-图纸二级" transform="translate(-193.000000, -151.000000)" fill="#00B3F3" fill-rule="nonzero">
            <g id="编组-8" transform="translate(157.000000, 112.000000)">
                <g id="tiaozheng" transform="translate(36.000000, 39.000000)">
                    <path d="M13.8100586,4.59130859 L13.8100586,1.87158203 C13.8100586,1.390625 13.4194336,1 12.9384766,1 C12.4575195,1 12.0668945,1.390625 12.0668945,1.87158203 L12.0668945,4.58886719 C10.4018555,4.984375 9.15917969,6.48339844 9.15917969,8.265625 C9.15917969,10.0478516 10.4018555,11.5493164 12.0668945,11.9423828 L12.0668945,25.1259766 C12.0668945,25.6069336 12.4575195,25.9975586 12.9384766,25.9975586 C13.4194336,25.9975586 13.8100586,25.6069336 13.8100586,25.1259766 L13.8100586,11.9423828 C15.4750977,11.546875 16.7177734,10.0478516 16.7177734,8.265625 C16.7177734,6.48339844 15.4750977,4.984375 13.8100586,4.59130859 L13.8100586,4.59130859 Z M5.67041016,15.0551758 L5.67041016,1.87158203 C5.67041016,1.390625 5.27978516,1 4.79882813,1 C4.31787109,1 3.92724609,1.390625 3.92724609,1.87158203 L3.92724609,15.0551758 C2.26220703,15.4506836 1.01953125,16.949707 1.01953125,18.7319336 C1.01953125,20.5141602 2.26220703,22.015625 3.92724609,22.4086914 L3.92724609,25.1259766 C3.92724609,25.6069336 4.31787109,25.9975586 4.79882813,25.9975586 C5.27978516,25.9975586 5.67041016,25.6069336 5.67041016,25.1259766 L5.67041016,22.4086914 C7.33544922,22.0131836 8.578125,20.5141602 8.578125,18.7319336 C8.578125,16.949707 7.33544922,15.4506836 5.67041016,15.0551758 Z M24.8574219,18.7319336 C24.8574219,16.9472656 23.6147461,15.4482422 21.949707,15.0551758 L21.949707,1.87158203 C21.949707,1.390625 21.559082,1 21.078125,1 C20.597168,1 20.206543,1.390625 20.206543,1.87158203 L20.206543,15.0551758 C18.5415039,15.4506836 17.2988281,16.949707 17.2988281,18.7319336 C17.2988281,20.5141602 18.5415039,22.015625 20.206543,22.4086914 L20.206543,25.1259766 C20.206543,25.6069336 20.597168,25.9975586 21.078125,25.9975586 C21.559082,25.9975586 21.949707,25.6069336 21.949707,25.1259766 L21.949707,22.4086914 C23.6147461,22.015625 24.8574219,20.5166016 24.8574219,18.7319336 Z" id="形状"></path>
                </g>
            </g>
        </g>
    </g>
</svg>