<?xml version="1.0" standalone="no"?><!DOCTYPE svg PUBLIC "-//W3C//DTD SVG 1.1//EN" "http://www.w3.org/Graphics/SVG/1.1/DTD/svg11.dtd"><svg t="1683784655954" class="icon" viewBox="0 0 1024 1024" version="1.1" xmlns="http://www.w3.org/2000/svg" p-id="8458" xmlns:xlink="http://www.w3.org/1999/xlink" width="17" height="17"><path d="M64.128 950.336h856.96v71.04H64.192v-71.04z m60.928-142.016h10.048l223.168-70.976c5.056 0 10.176-5.12 15.232-10.176l507.136-507.136a38.784 38.784 0 0 0 10.112-25.28 38.784 38.784 0 0 0-10.176-25.408L723.392 12.16c-15.232-15.232-35.52-15.232-50.688 0L165.504 519.296c-4.992 4.992-4.992 10.176-10.112 15.168L84.48 757.632c-5.056 15.232 0 25.344 10.176 35.52 10.112 10.048 20.288 15.168 30.464 15.168z m101.312-243.392l471.68-471.68 106.496 106.56-471.616 471.552-152.192 45.632 45.632-152.064z" p-id="8459"></path></svg>