<?xml version="1.0" standalone="no"?><!DOCTYPE svg PUBLIC "-//W3C//DTD SVG 1.1//EN" "http://www.w3.org/Graphics/SVG/1.1/DTD/svg11.dtd"><svg t="1690445845074" class="icon" viewBox="0 0 1024 1024" version="1.1" xmlns="http://www.w3.org/2000/svg" p-id="4277" xmlns:xlink="http://www.w3.org/1999/xlink" width="34" height="34"><path d="M512 512m-512 0a512 512 0 1 0 1024 0 512 512 0 1 0-1024 0Z" p-id="4278"></path><path d="M265.058462 433.230769a68.923077 68.923077 0 1 1-68.135385 68.923077 68.529231 68.529231 0 0 1 68.135385-68.923077z" fill="#FFFFFF" p-id="4279"></path><path d="M512 433.230769a68.923077 68.923077 0 1 1-68.135385 68.923077A68.529231 68.529231 0 0 1 512 433.230769z" fill="#FFFFFF" p-id="4280"></path><path d="M758.941538 433.230769a68.923077 68.923077 0 1 1-68.135384 68.923077 68.529231 68.529231 0 0 1 68.135384-68.923077z" fill="#FFFFFF" p-id="4281"></path></svg>