<?xml version="1.0" standalone="no"?><!DOCTYPE svg PUBLIC "-//W3C//DTD SVG 1.1//EN" "http://www.w3.org/Graphics/SVG/1.1/DTD/svg11.dtd"><svg t="1688715654470" class="icon" viewBox="0 0 1024 1024" version="1.1" xmlns="http://www.w3.org/2000/svg" p-id="3671" xmlns:xlink="http://www.w3.org/1999/xlink" width="34" height="34"><path d="M738.67264 676.90496l-53.57568-30.72 23.83872-6.43072a26.70592 26.70592 0 1 0-13.9264-51.52768l-75.48928 20.31616-72.54016-41.94304 72.4992-41.94304 75.53024 20.31616h6.9632a26.95168 26.95168 0 0 0 6.9632-53.41184l-23.83872-5.07904 53.57568-30.72a26.8288 26.8288 0 0 0-26.78784-46.44864l-57.83552 33.5872 8.02816-29.61408a26.78784 26.78784 0 1 0-51.65056-13.84448l-21.95456 80.11776-68.28032 40.83712v-83.5584l55.41888-55.296a26.74688 26.74688 0 1 0-38.01088-37.6832l-17.408 17.36704V299.54048a26.78784 26.78784 0 1 0-53.57568 0v65.9456l-21.7088-21.58592a26.74688 26.74688 0 1 0-37.96992 37.64224l59.71968 59.51488v80.11776l-68.8128-40.5504-21.95456-80.11776a26.74688 26.74688 0 1 0-51.69152 13.84448l8.56064 28.59008-57.83552-33.09568a26.8288 26.8288 0 1 0-26.78784 46.44864l53.53472 30.18752-22.48704 6.9632a26.95168 26.95168 0 0 0 6.9632 53.41184h6.9632L368.64 526.49984l71.22944 40.1408-72.54016 41.90208-75.53024-20.31616a26.70592 26.70592 0 1 0-12.57472 51.48672l23.83872 6.43072-53.57568 30.72a26.8288 26.8288 0 0 0 26.78784 46.44864l56.5248-33.05472-8.06912 29.65504a26.70592 26.70592 0 0 0 18.47296 33.62816 30.72 30.72 0 0 0 6.9632 0c12.45184 0.4096 23.552-7.7824 26.78784-19.78368l21.95456-80.11776 67.74784-40.83712V696.32l-55.45984 55.296a26.74688 26.74688 0 1 0 38.01088 37.6832l17.408-17.408v61.72672a26.78784 26.78784 0 0 0 53.53472 0v-65.9456l21.7088 21.58592a26.74688 26.74688 0 1 0 38.01088-37.60128L520.192 692.14208V611.9424l68.8128 39.81312 21.95456 80.11776c3.23584 12.00128 14.336 20.19328 26.74688 19.78368a30.63808 30.63808 0 0 0 6.9632 0 26.66496 26.66496 0 0 0 19.00544-32.84992l-9.6256-28.59008 57.30304 33.13664a26.8288 26.8288 0 1 0 26.78784-46.4896h0.53248z" p-id="3672"></path><path d="M278.44608 192.75776c51.69152-46.2848 135.5776-75.24352 217.37472-68.28032 245.5552 0 444.66176 199.0656 444.66176 444.66176 0 245.5552-199.0656 444.6208-444.66176 444.6208a444.49792 444.49792 0 0 1-392.31488-235.23328 30.72 30.72 0 0 1 54.19008-28.95872 383.1808 383.1808 0 0 0 721.3056-180.4288c0-211.64032-171.54048-383.22176-385.72032-383.30368-67.3792-5.65248-134.59456 17.53088-173.8752 52.67456a30.72 30.72 0 0 1-40.96-45.75232z" p-id="3673"></path><path d="M247.6032 26.50112A46.20288 46.20288 0 0 1 309.53472 4.62848c21.42208 10.4448 31.29344 35.26656 23.71584 57.38496l-2.048 5.07904-57.63072 148.52096 147.8656 21.87264c22.03648 8.88832 33.5872 33.01376 27.52512 55.62368l-1.72032 5.16096a46.2848 46.2848 0 0 1-55.17312 27.77088l-5.16096-1.72032-193.90464-40.46848a46.8992 46.8992 0 0 1-26.58304-58.7776l2.048-4.9152L247.6032 26.50112z" p-id="3674"></path></svg>