<?xml version="1.0" standalone="no"?><!DOCTYPE svg PUBLIC "-//W3C//DTD SVG 1.1//EN" "http://www.w3.org/Graphics/SVG/1.1/DTD/svg11.dtd"><svg t="1688715716534" class="icon" viewBox="0 0 1109 1024" version="1.1" xmlns="http://www.w3.org/2000/svg" p-id="3823" xmlns:xlink="http://www.w3.org/1999/xlink" width="36.822265625" height="34"><path d="M554.082987 0C271.714987 0 42.722987 228.992 42.722987 511.36 42.722987 793.770667 271.714987 1022.72 554.082987 1022.72c282.410667 0 511.36-228.949333 511.36-511.36C1065.442987 228.992 836.493653 0 554.082987 0z m-6.186667 938.666667c-235.605333 0-426.666667-191.061333-426.666667-426.666667s191.061333-426.666667 426.666667-426.666667 426.666667 191.061333 426.666667 426.666667-191.061333 426.666667-426.666667 426.666667z" p-id="3824"></path><path d="M848.098987 645.418667l-64.469334-36.949334 28.672-7.722666a32.170667 32.170667 0 1 0-16.768-62.08l-90.88 24.448-87.424-50.517334 87.381334-50.474666 90.922666 24.448h8.405334a32.426667 32.426667 0 0 0 8.362666-64.341334l-28.672-6.101333 64.469334-36.992a32.298667 32.298667 0 0 0-32.256-55.936l-69.632 40.490667 9.685333-35.712a32.256 32.256 0 1 0-62.250667-16.64l-26.453333 96.426666-82.176 49.237334V356.266667l66.730667-66.56a32.170667 32.170667 0 1 0-45.781334-45.354667l-20.949333 20.906667v-74.24a32.256 32.256 0 1 0-64.512 0v79.36l-26.112-26.026667a32.213333 32.213333 0 1 0-45.781333 45.354667L520.589653 361.386667v96.512l-82.901333-48.896-26.453333-96.469334a32.213333 32.213333 0 1 0-62.208 16.725334l10.282666 34.389333-69.632-39.850667A32.298667 32.298667 0 1 0 257.33632 379.733333l64.512 36.352-27.093333 8.362667a32.426667 32.426667 0 1 0 8.405333 64.341333H311.522987l90.965333-24.490666 85.76 48.256-87.381333 50.517333-90.922667-24.448a32.170667 32.170667 0 1 0-15.146667 61.994667l28.714667 7.722666-64.512 36.992a32.298667 32.298667 0 0 0 32.256 55.936l68.010667-39.765333-9.685334 35.669333a32.170667 32.170667 0 0 0 22.272 40.533334 36.992 36.992 0 0 0 8.362667 0 32.256 32.256 0 0 0 32.256-23.808l26.453333-96.512 81.578667-49.194667v100.693333l-66.773333 66.56a32.213333 32.213333 0 1 0 45.781333 45.312l20.949333-20.906666v74.282666a32.256 32.256 0 0 0 64.469334 0V754.773333l26.112 26.026667a32.213333 32.213333 0 1 0 45.824-45.312l-71.893334-71.68v-96.512l82.858667 47.914667 26.453333 96.426666c3.84 14.506667 17.237333 24.362667 32.213334 23.850667a36.864 36.864 0 0 0 8.405333 0 32.128 32.128 0 0 0 22.869333-39.552l-11.605333-34.389333 68.992 39.850666a32.298667 32.298667 0 1 0 32.256-55.936h0.64z" p-id="3825"></path><path d="M9.78432 75.136a42.666667 42.666667 0 0 1 55.722667-8.96l4.352 3.157333 1024 843.221334a42.666667 42.666667 0 0 1-49.92 68.992l-4.352-3.114667-1024-843.221333a42.666667 42.666667 0 0 1-5.802667-60.074667z" p-id="3826"></path></svg>