<?xml version="1.0" standalone="no"?><!DOCTYPE svg PUBLIC "-//W3C//DTD SVG 1.1//EN" "http://www.w3.org/Graphics/SVG/1.1/DTD/svg11.dtd"><svg t="1679553041811" class="icon" viewBox="0 0 1024 1024" version="1.1" xmlns="http://www.w3.org/2000/svg" p-id="3668" xmlns:xlink="http://www.w3.org/1999/xlink" width="200" height="200"><path d="M533.897838 8.38892l4.214152 3.662768 155.175325 155.175325a41.156907 41.156907 0 0 1-53.956902 61.912591l-4.214153-3.702152-85.18889-85.149506v355.13094A265.452206 265.452206 0 0 1 515.899075 1023.999606a265.373436 265.373436 0 0 1-48.246135-526.375182V140.681792l-84.67689 84.75566a41.156907 41.156907 0 0 1-53.996287 3.702152l-4.214153-3.702152a41.156907 41.156907 0 0 1-3.702152-53.956903l3.702152-4.214152L479.901551 12.051688A41.156907 41.156907 0 0 1 533.897838 8.38892z m16.068917 532.991795v69.43505a151.70948 151.70948 0 0 1-34.107064 299.441116 151.630711 151.630711 0 0 1-48.246135-295.423887v-70.774126a219.884223 219.884223 0 1 0 82.313814-2.678153z" fill="#1296db" p-id="3669"></path></svg>