<?xml version="1.0" standalone="no"?><!DOCTYPE svg PUBLIC "-//W3C//DTD SVG 1.1//EN" "http://www.w3.org/Graphics/SVG/1.1/DTD/svg11.dtd"><svg t="1689404468968" class="icon" viewBox="0 0 1024 1024" version="1.1" xmlns="http://www.w3.org/2000/svg" p-id="4945" xmlns:xlink="http://www.w3.org/1999/xlink" width="34" height="34"><path d="M328.7552 592.8448a102.4 102.4 0 0 1 102.4 102.4V921.6a102.4 102.4 0 0 1-102.4 102.4H0v-328.7552a102.4 102.4 0 0 1 102.4-102.4h226.3552z m592.8448 0a102.4 102.4 0 0 1 102.4 102.4V1024h-328.7552a102.4 102.4 0 0 1-102.4-102.4v-226.3552a102.4 102.4 0 0 1 102.4-102.4H921.6zM328.7552 0a102.4 102.4 0 0 1 102.4 102.4v226.3552a102.4 102.4 0 0 1-102.4 102.4H102.4a102.4 102.4 0 0 1-102.4-102.4V0h328.7552zM1024 0v328.7552a102.4 102.4 0 0 1-102.4 102.4h-226.3552a102.4 102.4 0 0 1-102.4-102.4V102.4a102.4 102.4 0 0 1 102.4-102.4H1024z" p-id="4946"></path></svg>