<?xml version="1.0" standalone="no"?><!DOCTYPE svg PUBLIC "-//W3C//DTD SVG 1.1//EN" "http://www.w3.org/Graphics/SVG/1.1/DTD/svg11.dtd"><svg t="1689404442055" class="icon" viewBox="0 0 1024 1024" version="1.1" xmlns="http://www.w3.org/2000/svg" p-id="4795" xmlns:xlink="http://www.w3.org/1999/xlink" width="34" height="34"><path d="M939.362304 32a64 64 0 0 1 7.424 127.5904l-7.424 0.4096H400.226304A64 64 0 0 1 392.853504 32.4096l7.4752-0.4096h539.0848zM185.595904 32a64 64 0 0 1 7.424 127.5904l-7.424 0.4096H64.251904A64 64 0 0 1 56.776704 32.4096L64.251904 32h121.344zM939.362304 432.0256a64 64 0 0 1 7.424 127.5392l-7.424 0.4096H400.226304a64 64 0 0 1-7.424-127.5392l7.4752-0.4096h539.0848zM185.595904 432.0256a64 64 0 0 1 7.424 127.5392l-7.424 0.4096H64.251904a64 64 0 0 1-7.4752-127.5392l7.4752-0.4096h121.344zM939.362304 832a64 64 0 0 1 7.424 127.5904l-7.424 0.4096H400.226304a64 64 0 0 1-7.424-127.5904l7.4752-0.4096h539.0848zM185.595904 832a64 64 0 0 1 7.424 127.5904l-7.424 0.4096H64.251904a64 64 0 0 1-7.4752-127.5904l7.4752-0.4096h121.344z" p-id="4796"></path></svg>