<?xml version="1.0" standalone="no"?><!DOCTYPE svg PUBLIC "-//W3C//DTD SVG 1.1//EN" "http://www.w3.org/Graphics/SVG/1.1/DTD/svg11.dtd"><svg t="1689322514194" class="icon" viewBox="0 0 1137 1024" version="1.1" xmlns="http://www.w3.org/2000/svg" p-id="4391" xmlns:xlink="http://www.w3.org/1999/xlink" width="37.751953125" height="34"><path d="M986.168889 0.113778a151.665778 151.665778 0 0 1 151.722667 151.722666v682.666667a151.665778 151.665778 0 0 1-151.722667 151.665778H151.893333a151.665778 151.665778 0 0 1-151.722666-151.722667v-682.666666A151.665778 151.665778 0 0 1 151.836444 0.170667z m-295.651556 352.199111l-121.400889 121.400889L447.715556 352.312889a39.651556 39.651556 0 0 0-56.035556 56.035555L513.137778 529.749333l-1.251556 1.308445h-94.435555a37.944889 37.944889 0 0 0 0 75.889778h113.777777v75.832888h-113.777777a37.944889 37.944889 0 0 0 0 75.889778h113.777777v75.776a37.944889 37.944889 0 0 0 75.889778 0v-75.776h113.777778a37.944889 37.944889 0 0 0 0-75.889778h-113.777778v-75.832888h113.777778a37.944889 37.944889 0 0 0 0-75.889778h-94.435556l-1.251555-1.308445 121.400889-121.400889a39.651556 39.651556 0 0 0-56.035556-56.035555z m295.651556-276.423111H151.893333c-41.813333 0-75.832889 33.905778-75.832889 75.832889V227.555556h985.941334V151.722667c0-41.813333-33.848889-75.832889-75.776-75.832889z" p-id="4392"></path></svg>