<?xml version="1.0" standalone="no"?><!DOCTYPE svg PUBLIC "-//W3C//DTD SVG 1.1//EN" "http://www.w3.org/Graphics/SVG/1.1/DTD/svg11.dtd"><svg t="1689322499337" class="icon" viewBox="0 0 1024 1024" version="1.1" xmlns="http://www.w3.org/2000/svg" p-id="4241" xmlns:xlink="http://www.w3.org/1999/xlink" width="34" height="34"><path d="M701.366857 435.44381a48.761905 48.761905 0 0 1 48.761905 48.761904v470.211048a48.761905 48.761905 0 0 1-48.761905 48.761905h-378.392381a48.761905 48.761905 0 0 1-48.761905-48.761905V484.156952a48.761905 48.761905 0 0 1 48.761905-48.761904h378.392381z m-182.320762 309.540571c-21.942857 0-41.545143 9.99619-54.564571 25.648762H395.922286v94.549333h72.265143a70.656 70.656 0 0 0 101.717333 0h65.877333v-94.500571l-62.171428-0.048762a70.704762 70.704762 0 0 0-54.564572-25.648762z m-13.409524-186.904381c-21.016381 0-39.887238 9.118476-52.857904 23.649524H395.922286v94.451809h56.856381a70.704762 70.704762 0 0 0 105.667047 0h77.336381V581.729524h-77.336381a70.704762 70.704762 0 0 0-52.809143-23.600762zM481.499429 0c97.718857 0 183.296 49.054476 231.911619 122.88 9.508571 14.628571 24.868571 24.33219 42.081523 26.916571C893.830095 170.76419 999.594667 285.159619 999.594667 423.69219c0 125.805714-82.748952 232.057905-196.120381 266.093715V392.97219a48.761905 48.761905 0 0 0-43.056762-48.420571l-5.705143-0.341333H278.552381a48.761905 48.761905 0 0 0-48.420571 43.056762l-0.341334 5.705142v303.640381C112.420571 674.230857 24.356571 579.974095 24.356571 467.529143 24.356571 372.833524 86.869333 291.254857 176.688762 254.537143a60.952381 60.952381 0 0 0 36.425143-44.129524C238.421333 90.404571 348.867048 0 481.499429 0z" p-id="4242"></path></svg>