<?xml version="1.0" standalone="no"?><!DOCTYPE svg PUBLIC "-//W3C//DTD SVG 1.1//EN" "http://www.w3.org/Graphics/SVG/1.1/DTD/svg11.dtd"><svg t="1689322449992" class="icon" viewBox="0 0 1077 1024" version="1.1" xmlns="http://www.w3.org/2000/svg" p-id="4091" xmlns:xlink="http://www.w3.org/1999/xlink" width="35.759765625" height="34"><path d="M831.021852 500.165214H471.020168a53.892468 53.892468 0 0 1-54.054146-54.16193 53.892468 53.892468 0 0 1 54.108038-54.215822h360.001684a53.892468 53.892468 0 0 1 54.054145 54.215822 53.892468 53.892468 0 0 1-54.054145 54.16193zM216.108795 659.686918c0 33.089975 23.982148 57.126016 56.964339 57.126016a57.126016 57.126016 0 0 0 40.311566-97.545366 57.126016 57.126016 0 0 0-40.311566-16.760558 55.293672 55.293672 0 0 0-56.964339 57.126016z m0-213.683634c0 33.089975 23.982148 57.126016 56.964339 57.126016a57.126016 57.126016 0 0 0 56.964338-57.126016 57.126016 57.126016 0 1 0-113.928677 0z m615.020842 267.845564H471.020168a53.892468 53.892468 0 0 1-54.108038-54.16193 53.892468 53.892468 0 0 1 54.108038-54.16193h360.001684a53.892468 53.892468 0 0 1 54.054145 54.16193 53.892468 53.892468 0 0 1-54.054145 54.16193z m246.1269 174.503811V211.301587c0-81.269841-75.018315-75.287777-75.018315-75.287777h-423.217549c-24.036041 0-39.018147-12.071913-39.018147-12.071913s-18.000084-29.964212-50.982274-78.144078C459.05604-8.418003 420.091786 0.582039 420.091786 0.582039h-327.127279C0 0.582039 0 87.887836 0 87.887836v794.482759c0 99.323818 74.964423 87.305798 74.964423 87.305798h936.112163c78.144078 0 66.126058-81.323734 66.126058-81.323734z" p-id="4092"></path></svg>