<?xml version="1.0" encoding="UTF-8"?>
<svg width="17px" height="17px" viewBox="0 0 17 17" version="1.1" xmlns="http://www.w3.org/2000/svg" xmlns:xlink="http://www.w3.org/1999/xlink">
    <title>定位</title>
    <path d="M8.7125,0.466122913 L8.71235123,2.58636443 C11.2543823,2.87834763 13.2716338,4.89558946 13.5636318,7.43761599 L15.7295719,7.4375 L15.7295719,8.7125 L13.5636318,8.71238401 C13.2716338,11.2544105 11.2543823,13.2716524 8.71235123,13.5636356 L8.7125,16.1911229 L7.4375,16.1911229 L7.43665139,13.5635209 C4.89509009,13.2711247 2.87832804,11.2540781 2.5863682,8.71238401 L0.00457191467,8.7125 L0.00457191467,7.4375 L2.5863682,7.43761599 C2.87832804,4.89592193 4.89509009,2.8788753 7.43665139,2.58647909 L7.4375,0.466122913 L8.7125,0.466122913 Z M8.075,3.825 C5.72778981,3.825 3.825,5.72778981 3.825,8.075 C3.825,10.4222102 5.72778981,12.325 8.075,12.325 C10.4222102,12.325 12.325,10.4222102 12.325,8.075 C12.325,5.72778981 10.4222102,3.825 8.075,3.825 Z M8.075,5.12833333 C9.70239906,5.12833333 11.0216667,6.44760094 11.0216667,8.075 C11.0216667,9.70239906 9.70239906,11.0216667 8.075,11.0216667 C6.44760094,11.0216667 5.12833333,9.70239906 5.12833333,8.075 C5.12833333,6.44760094 6.44760094,5.12833333 8.075,5.12833333 Z" id="添加定位"></path>
    
</svg>