<?xml version="1.0" standalone="no"?><!DOCTYPE svg PUBLIC "-//W3C//DTD SVG 1.1//EN" "http://www.w3.org/Graphics/SVG/1.1/DTD/svg11.dtd"><svg t="1689387721637" class="icon" viewBox="0 0 1365 1024" version="1.1" xmlns="http://www.w3.org/2000/svg" p-id="4345" xmlns:xlink="http://www.w3.org/1999/xlink" width="45.322265625" height="34"><path d="M640 0.136533c136.8064 0 256.546133 68.676267 324.539733 172.032 1.706667 2.525867 3.4816 4.9152 5.461334 7.236267l-8.874667 2.184533a102.4 102.4 0 0 0-63.6928 142.472534 12.6976 12.6976 0 0 1-2.525867 14.5408l-57.9584 57.9584a12.834133 12.834133 0 0 1-14.5408 2.4576A179.2 179.2 0 0 0 571.050667 525.653333a12.834133 12.834133 0 0 1-12.561067 10.24H483.191467a12.629333 12.629333 0 0 1-11.946667-8.192 102.4 102.4 0 1 0 1.501867 68.266667 12.9024 12.9024 0 0 1 12.151466-8.874667h73.659734c6.075733 0 11.332267 4.232533 12.561066 10.103467a179.2 179.2 0 0 0 219.886934 137.898667 12.6976 12.6976 0 0 1 14.199466 6.075733l36.795734 63.6928a102.4 102.4 0 0 0 45.738666 176.605867l-546.269866-0.136534C151.210667 971.434667 0.273067 828.416 0.273067 654.267733c0-132.642133 87.4496-246.784 213.060266-297.984 26.282667-10.717867 45.056-33.9968 50.926934-61.781333C299.758933 126.634667 454.2464 0.136533 640 0.136533z m433.083733 220.16c168.686933 46.830933 291.976533 195.720533 292.113067 372.667734 0 214.357333-172.032 388.369067-383.863467 388.369066l-48.9472 0.068267a102.468267 102.468267 0 0 0 79.940267-98.577067 103.424 103.424 0 0 0-116.3264-102.8096 12.765867 12.765867 0 0 1-12.9024-6.212266l-30.72-53.4528a12.6976 12.6976 0 0 1 3.208533-16.5888 178.9952 178.9952 0 0 0 24.917334-261.461334 12.765867 12.765867 0 0 1 0.546133-17.476266l50.107733-49.9712a12.834133 12.834133 0 0 1 14.5408-2.525867 102.4 102.4 0 0 0 130.935467-146.773333z" p-id="4346"></path></svg>