<?xml version="1.0" standalone="no"?><!DOCTYPE svg PUBLIC "-//W3C//DTD SVG 1.1//EN" "http://www.w3.org/Graphics/SVG/1.1/DTD/svg11.dtd"><svg t="1689326057610" class="icon" viewBox="0 0 1092 1024" version="1.1" xmlns="http://www.w3.org/2000/svg" p-id="4324" xmlns:xlink="http://www.w3.org/1999/xlink" width="36.2578125" height="34"><path d="M407.014741 31.197867L402.782208 35.089067 10.453675 455.338667a38.912 38.912 0 0 0-4.573867 47.104l3.4816 4.778666 392.328533 457.796267a38.912 38.912 0 0 0 62.464-45.943467l-3.413333-4.642133-369.664-431.445333 368.571733-394.717867a38.912 38.912 0 0 0 2.048-50.722133L457.668608 33.245867a38.912 38.912 0 0 0-50.722133-2.048z m312.32 0l-4.232533 3.8912L322.773675 455.338667a38.912 38.912 0 0 0-4.573867 47.104l3.4816 4.778666 392.328533 457.796267a38.912 38.912 0 0 0 62.464-45.943467l-3.413333-4.642133-369.664-431.445333 368.571733-394.717867a38.912 38.912 0 0 0 2.048-50.722133L770.056875 33.245867a38.912 38.912 0 0 0-50.722134-2.048z m309.8624 0l-4.232533 3.8912L632.636075 455.338667a38.912 38.912 0 0 0-4.573867 47.104l3.4816 4.778666 392.328533 457.796267a38.912 38.912 0 0 0 62.464-45.943467l-3.413333-4.642133-369.664-431.445333 368.571733-394.717867a38.912 38.912 0 0 0 2.048-50.722133l-3.959466-4.232534a38.912 38.912 0 0 0-50.722134-2.048z" p-id="4325"></path></svg>