<?xml version="1.0" encoding="UTF-8"?>
<svg width="15px" height="16px" viewBox="0 0 15 16" version="1.1" xmlns="http://www.w3.org/2000/svg" xmlns:xlink="http://www.w3.org/1999/xlink">
    <title>形状</title>
    <path d="M6.94867167,0.910295375 L4.97162392,0.0568934531 C4.55817408,-0.103677234 4.09176036,0.0914044507 3.91575104,0.498521672 C3.73974172,0.905638893 3.91714078,1.37906069 4.31734912,1.57025952 C1.55087031,2.72496133 -0.172827024,5.5135132 0.0311524924,8.50435483 C0.235132008,11.4951965 2.32147338,14.0238984 5.21911047,14.7922997 C5.28986364,14.8099496 5.36239502,14.8194932 5.43530562,14.8207465 C5.84877822,14.8200382 6.19785843,14.5133514 6.25179787,14.1034116 C6.30573731,13.6934719 6.04787222,13.3069238 5.64865609,13.1992829 C3.39799321,12.6003558 1.79322663,10.6144161 1.68016335,8.2881715 C1.56710007,5.96192694 2.97171099,3.82972139 5.153683,3.01535341 L5.02282803,3.31973342 C4.93667539,3.52073999 4.93416093,3.74778899 5.01584088,3.95065422 C5.09752083,4.15351946 5.25666298,4.3154804 5.45806302,4.40070917 C5.55937844,4.44532628 5.66880727,4.46856781 5.77951106,4.46898133 C6.1067612,4.47184227 6.40476074,4.28098863 6.53903877,3.98254223 L7.3782173,1.99127112 C7.55497427,1.57411188 7.3635416,1.09236078 6.94867167,0.910295375 Z M14.1400051,7.96508448 C14.2248014,4.80408781 12.1834458,1.97741617 9.15613795,1.06390772 C8.87026314,0.965892227 8.55367617,1.03203774 8.33096027,1.23631469 C8.10824437,1.44059164 8.01505346,1.75029795 8.08806001,2.04355805 C8.16106656,2.33681815 8.38858317,2.56668493 8.68107755,2.64270125 C10.7688018,3.26509409 12.2711881,5.09047612 12.4804736,7.25892373 C12.6897591,9.42737133 11.5642017,11.5063866 9.63404302,12.5165613 C9.85242167,12.1182952 9.70659407,11.6184058 9.30832795,11.4000272 C8.91006183,11.1816485 8.41017246,11.3274761 8.1917938,11.7257422 L7.06814794,13.5577117 C6.95099187,13.7438852 6.91362325,13.9693501 6.96445191,14.1833655 C7.01528057,14.3973809 7.15003613,14.5819664 7.33839187,14.6955809 L9.16751664,15.8334501 C9.41849347,16.0229138 9.75535449,16.053215 10.036114,15.9115817 C10.3168735,15.7699484 10.4926933,15.4810178 10.4894661,15.1665731 C10.4862388,14.8521284 10.3045259,14.5668673 10.0209185,14.4310263 L9.77058733,14.2745693 C12.3513767,13.2264506 14.0666206,10.7496206 14.1400051,7.96508448 L14.1400051,7.96508448 Z" id="形状"></path>
</svg>