<?xml version="1.0" standalone="no"?><!DOCTYPE svg PUBLIC "-//W3C//DTD SVG 1.1//EN" "http://www.w3.org/Graphics/SVG/1.1/DTD/svg11.dtd"><svg t="1704779459705" class="icon" viewBox="0 0 1024 1024" version="1.1" xmlns="http://www.w3.org/2000/svg" p-id="26685" xmlns:xlink="http://www.w3.org/1999/xlink" width="18" height="18"><path d="M896.007676 192.006548v639.999548c0 35.349521 28.650253 64.00158 64.001581 64.00158 35.338684 0 63.990743-28.652059 63.990743-64.00158V192.006548c0-35.351327-28.652059-64.003387-63.990743-64.003387-35.351327 0.001806-64.00158 28.652059-64.001581 64.003387zM599.043522 64.003387v896.00587c0 35.338684 28.653866 63.990743 64.001581 63.990743 35.34049 0 64.003387-28.652059 64.003386-63.990743V64.003387C727.048489 28.653866 698.385593 0 663.045103 0c-35.347715 0-64.00158 28.653866-64.001581 64.003387zM0 64.003387v896.00587c0 35.338684 28.653866 63.990743 64.00158 63.990743 35.351327 0 64.003387-28.652059 64.003387-63.990743V64.003387C128.004967 28.653866 99.351102 0 64.00158 0 28.653866 0 0 28.653866 0 64.003387zM296.960542 192.006548v639.999548c0 35.349521 28.652059 64.00158 64.003387 64.00158 35.347715 0 64.00158-28.652059 64.00158-64.00158V192.006548c0-35.351327-28.652059-64.003387-64.00158-64.003387-35.351327 0.001806-64.003387 28.652059-64.003387 64.003387z" p-id="26686"></path></svg>