<?xml version="1.0" standalone="no"?><!DOCTYPE svg PUBLIC "-//W3C//DTD SVG 1.1//EN" "http://www.w3.org/Graphics/SVG/1.1/DTD/svg11.dtd"><svg t="1704778895615" class="icon" viewBox="0 0 1024 1024" version="1.1" xmlns="http://www.w3.org/2000/svg" p-id="21757" xmlns:xlink="http://www.w3.org/1999/xlink" width="18" height="18"><path d="M912 800a48 48 0 0 1 0 96h-800a48 48 0 0 1 0-96h800z m-192-224a48 48 0 0 1 0 96h-416a48 48 0 0 1 0-96h416z m192-224a48 48 0 0 1 0 96h-800a48 48 0 0 1 0-96h800z m-192-224a48 48 0 0 1 0 96h-416a48 48 0 0 1 0-96h416z" p-id="21758"></path></svg>